# xmcd
#
# Track frame offsets: 
#        183
#        10093
#        20993
#        30623
#        44168
#        55310
#        68355
#        77960
#        89498
#        99608
#        111415
#        124218
#        133885
#        145108
#        154898
#        162923
#        174765
#        186803
#        197435
#        211308
#        223698
#        235023
#        248498
#        257323
#
# Disc length: 3598 seconds
#
# Revision: 0
# Processed by: cddbd v1.5.1PL0 Copyright (c) Steve Scherf et al.
# Submitted via: ExactAudioCopy v0.95a4
#
DISCID=4f0e0c18
DTITLE=Jerry Lee Lewis - The Locust Years - Disc 4
DYEAR=1900
DGENRE=Country
TTITLE0=All The Good Is Gone
TTITLE1=Another Place, Another Time
TTITLE2=Walking The Floor Over You
TTITLE3=I'm A Lonesome Fugitive
TTITLE4=Break My Mind
TTITLE5=Play Me A Song I Can Cry To
TTITLE6=Before The Next Teardrop Falls
TTITLE7=All Night Long
TTITLE8=We Live In Two Different Worlds (& Linda Gail Lewis)
TTITLE9=What's Made Milwaukee Famous
TTITLE10=On The Back Row
TTITLE11=Slipping Around
TTITLE12=She Still Comes Around (To Love What's Left Of Me)
TTITLE13=Today I Started Loving You Again
TTITLE14=Louisiana Man
TTITLE15=There Stands The Glass
TTITLE16=I Can't Have Merry Christmas, Mary (Without You)
TTITLE17=Out Of My Mind
TTITLE18=I Can't Get Over You
TTITLE19=Listen, They're Playing My Song
TTITLE20=Echoes
TTITLE21=Release Me
TTITLE22=Let's Talk About Us
TTITLE23=To Make Love Sweeter For You
EXTD=
EXTT0=
EXTT1=
EXTT2=
EXTT3=
EXTT4=
EXTT5=
EXTT6=
EXTT7=
EXTT8=
EXTT9=
EXTT10=
EXTT11=
EXTT12=
EXTT13=
EXTT14=
EXTT15=
EXTT16=
EXTT17=
EXTT18=
EXTT19=
EXTT20=
EXTT21=
EXTT22=
EXTT23=
PLAYORDER=
